HIERARCHY
ROOT RootJoint
{
    OFFSET   0.000000   0.000000   0.000000
    CHANNELS 6 Xposition Yposition Zposition Xrotation Yrotation Zrotation
    JOINT pelvis_lowerback
    {
        OFFSET   0.000000   0.093605   0.000000
        CHANNELS 3 Xrotation Yrotation Zrotation
        JOINT lowerback_torso
        {
            OFFSET   0.000000   0.100000   0.000000
            CHANNELS 3 Xrotation Yrotation Zrotation
            JOINT torso_head
            {
                OFFSET   0.000000   0.282350   0.000000
                CHANNELS 3 Xrotation Yrotation Zrotation
                End Site
                {
                    OFFSET   0.000000   0.192650   0.000000
                }
            }
            JOINT rTorso_Clavicle
            {
                OFFSET  -0.001000   0.157500   0.000000
                CHANNELS 3 Xrotation Yrotation Zrotation
                JOINT rShoulder
                {
                    OFFSET  -0.117647   0.000000   0.000000
                    CHANNELS 3 Xrotation Yrotation Zrotation
                    JOINT rElbow
                    {
                        OFFSET  -0.245000   0.000000   0.000000
                        CHANNELS 3 Xrotation Yrotation Zrotation
                        JOINT rWrist
                        {
                            OFFSET  -0.240000   0.000000   0.000000
                            CHANNELS 3 Xrotation Yrotation Zrotation
                            End Site
                            {
                                OFFSET  -0.116353  -0.002500   0.000000
                            }
                        }
                    }
                }
            }
            JOINT lTorso_Clavicle
            {
                OFFSET   0.001000   0.157500   0.000000
                CHANNELS 3 Xrotation Yrotation Zrotation
                JOINT lShoulder
                {
                    OFFSET   0.117647   0.000000   0.000000
                    CHANNELS 3 Xrotation Yrotation Zrotation
                    JOINT lElbow
                    {
                        OFFSET   0.245000   0.000000   0.000000
                        CHANNELS 3 Xrotation Yrotation Zrotation
                        JOINT lWrist
                        {
                            OFFSET   0.240000   0.000000   0.000000
                            CHANNELS 3 Xrotation Yrotation Zrotation
                            End Site
                            {
                                OFFSET   0.116353  -0.002500   0.000000
                            }
                        }
                    }
                }
            }
        }
    }
    JOINT rHip
    {
        OFFSET  -0.100000  -0.051395   0.000000
        CHANNELS 3 Xrotation Yrotation Zrotation
        JOINT rKnee
        {
            OFFSET   0.000000  -0.410000   0.000000
            CHANNELS 3 Xrotation Yrotation Zrotation
            JOINT rAnkle
            {
                OFFSET   0.000000  -0.390000   0.000000
                CHANNELS 3 Xrotation Yrotation Zrotation
                JOINT rToeJoint
                {
                    OFFSET   0.000000  -0.050000   0.130000
                    CHANNELS 3 Xrotation Yrotation Zrotation
                    End Site
                    {
                        OFFSET  -0.010000   0.002000   0.060000
                    }
                }
            }
        }
    }
    JOINT lHip
    {
        OFFSET   0.100000  -0.051395   0.000000
        CHANNELS 3 Xrotation Yrotation Zrotation
        JOINT lKnee
        {
            OFFSET   0.000000  -0.410000   0.000000
            CHANNELS 3 Xrotation Yrotation Zrotation
            JOINT lAnkle
            {
                OFFSET   0.000000  -0.390000   0.000000
                CHANNELS 3 Xrotation Yrotation Zrotation
                JOINT lToeJoint
                {
                    OFFSET   0.000000  -0.050000   0.130000
                    CHANNELS 3 Xrotation Yrotation Zrotation
                    End Site
                    {
                        OFFSET   0.010000   0.002000   0.060000
                    }
                }
            }
        }
    }
}
MOTION
Frames: 14
Frame Time:   0.008333
 -2.217047   0.846914   5.593114   5.848778   5.966241   2.801064   8.501323  -0.686924  -1.686101   0.906835  -2.504055   0.220630  -9.522718  -2.245750   1.408258   5.870318  -5.462475   8.693821  21.150432   7.515970  45.731356  -0.022880  30.616084  -0.022350   3.170147   4.297323   0.907784   3.612495   4.123465  -6.900867   8.354434  -2.931309 -42.589532  -0.114076 -62.928775  -0.087546   1.765135  -6.473340   3.176903 -35.770298  -2.327622  -8.426552  99.092993  -0.007652   0.002818   4.317474  -4.864084   5.500806  -4.245426  -0.001403  -0.000447 -15.976122  -4.097806  -1.958114  47.361701  -0.001082  -0.005369 -29.553396  -1.560558   5.462791 -12.794427  -0.004980   0.006974
 -2.217581   0.851131   5.612563   5.805735   6.415467   2.555739   8.363353  -1.107865  -1.357123   0.772022  -2.781627   0.419560  -9.422458  -2.017325   1.189119   6.283263  -5.995378   8.456299  22.220770   7.132449  45.867719  -0.022886  29.686225  -0.018604   3.185371   4.049426   0.935078   3.409865   3.897360  -6.693924   7.368780  -3.346995 -42.730714  -0.125750 -65.282264  -0.097069   1.766101  -6.081451   3.326728 -37.513490  -2.381634  -8.146449  96.319949  -0.012346  -0.007511   4.014586  -5.299148   5.601257  -4.097761  -0.001480   0.000155 -14.238487  -4.448866  -1.507372  46.218097  -0.000851  -0.007139 -27.611874  -1.645498   4.859431 -16.606879  -0.022533   0.002437
 -2.218264   0.856225   5.632309   5.858710   6.796915   2.284460   8.125645  -1.497917  -1.027156   0.613615  -3.041235   0.624064  -9.317597  -1.798873   0.978516   6.715439  -6.547831   8.180429  23.259523   6.751547  46.020557  -0.022311  28.828438  -0.016077   3.205043   3.907909   1.059348   3.243125   3.714526  -6.464260   6.460715  -3.759392 -42.913706  -0.135068 -67.568293  -0.104771   1.779071  -6.141171   3.330071 -39.129144  -2.426594  -7.864929  92.921735  -0.016201  -0.017177   3.700695  -5.707230   5.690720  -3.965564  -0.001611   0.000630 -12.517929  -4.727616  -0.996951  44.837092  -0.000470  -0.009035 -25.174092  -1.723101   4.364983 -20.912470  -0.035078  -0.003048
 -2.219145   0.861529   5.652236   5.978512   7.147393   1.966176   7.835572  -1.881944  -0.680961   0.435786  -3.302057   0.838214  -9.221668  -1.594937   0.784336   7.145718  -7.100763   7.870353  24.255671   6.371800  46.159261  -0.021138  28.025246  -0.014467   3.224145   3.787895   1.204407   3.092165   3.555896  -6.201256   5.613825  -4.142152 -43.082185  -0.142904 -69.725837  -0.110602   1.798475  -6.376586   3.309741 -40.684902  -2.479316  -7.583791  89.490759  -0.018612  -0.024306   3.396449  -6.087500   5.773890  -3.854227  -0.001675   0.000930 -10.780883  -4.969254  -0.406544  43.376802   0.000136  -0.010720 -22.354756  -1.791977   3.967889 -25.779549  -0.043069  -0.009163
 -2.220219   0.866748   5.672250   6.130388   7.465353   1.612599   7.538934  -2.257063  -0.330612   0.253462  -3.560439   1.059114  -9.135413  -1.405333   0.605606   7.561301  -7.639153   7.540820  25.201937   5.999372  46.278716  -0.019620  27.271449  -0.013349   3.241987   3.661511   1.331013   2.945985   3.412391  -5.908281   4.816623  -4.493784 -43.223305  -0.149057 -71.750262  -0.114667   1.822266  -6.672892   3.321252 -42.195514  -2.530464  -7.315213  86.221987  -0.019811  -0.028650   3.108857  -6.441997   5.851783  -3.762541  -0.001662   0.001079  -9.078837  -5.230872   0.242915  41.839387   0.001500  -0.011535 -19.337458  -1.901423   3.657716 -30.798982  -0.046870  -0.010576
 -2.221472   0.871680   5.692322   6.295282   7.766476   1.223127   7.251642  -2.624241   0.025235   0.078734  -3.815343   1.286681  -9.055645  -1.229338   0.440776   7.959153  -8.158359   7.202244  26.097831   5.637556  46.381600  -0.017949  26.563875  -0.012451   3.258751   3.524179   1.433308   2.802160   3.280291  -5.594034   4.064492  -4.817386 -43.339141  -0.153666 -73.646937  -0.117594   1.849428  -6.994161   3.370863 -43.659351  -2.582269  -7.063966  83.170009  -0.020561  -0.030809   2.839321  -6.772465   5.925066  -3.689025  -0.001573   0.001118  -7.419690  -5.485882   0.948322  40.289195   0.003057  -0.011840 -16.176497  -2.020120   3.407032 -35.882554  -0.048161  -0.010828
 -2.222884   0.876298   5.712465   6.459205   8.062740   0.818988   6.982964  -2.982939   0.369951  -0.083050  -4.066047   1.513140  -8.981144  -1.066018   0.288338   8.337667  -8.656152   6.871933  26.943295   5.290040  46.474933  -0.016287  25.899312  -0.011619   3.274852   3.372853   1.515628   2.661770   3.157557  -5.273653   3.355961  -5.115393 -43.435193  -0.156913 -75.420254  -0.120050   1.878876  -7.319002   3.450874 -45.065858  -2.625984  -6.847967  80.334172  -0.021230  -0.031473   2.587475  -7.080885   5.993787  -3.630636  -0.001435   0.001087  -5.819863  -5.714815   1.681786  38.812860   0.004367  -0.011840 -13.088596  -2.134128   3.187525 -39.925190  -0.045836  -0.011455
 -2.224029   0.880889   5.732757   6.619157   8.405438   0.583504   6.637447  -3.307886   0.626807  -0.187533  -4.353266   1.672181  -8.793854  -0.975429   0.054717   8.791767  -9.116236   6.696709  27.705794   4.806274  46.585898  -0.014801  25.445979  -0.010382   3.268035   3.126935   1.447781   2.619422   3.033565  -4.937296   3.075929  -5.627482 -43.510532  -0.131720 -77.187267  -0.093211   1.984967  -7.610018   3.723519 -46.000558  -2.605848  -6.776490  76.656383  -0.023836  -0.034648   2.054786  -7.337156   5.914916  -3.489307  -0.001510   0.001491  -4.654001  -5.676792   2.246738  38.034126   0.003529  -0.012353  -9.808889  -2.334523   2.673228 -41.781568  -0.043267  -0.017541
 -2.224954   0.885240   5.753202   6.778523   8.641015   0.471283   6.266084  -3.574511   0.820574  -0.279149  -4.600430   1.783661  -8.612378  -0.891825  -0.176368   9.231111  -9.569218   6.556963  28.428038   4.352085  46.719640  -0.013789  25.024653  -0.009198   3.259504   2.913829   1.396704   2.642499   2.956031  -4.643341   2.869368  -6.095723 -43.609789  -0.105094 -78.841841  -0.066631   2.090858  -7.930658   3.794315 -46.694580  -2.554617  -6.736567  72.737546  -0.022381  -0.036675   1.546512  -7.576821   5.837148  -3.360956  -0.001677   0.001725  -3.636309  -5.596248   2.665632  37.454395   0.003053  -0.011644  -6.424919  -2.600159   2.189966 -42.698030  -0.038192  -0.017611
 -2.225721   0.889251   5.773726   6.953093   8.759581   0.434733   5.883493  -3.792091   0.986220  -0.373998  -4.801229   1.871121  -8.445693  -0.813693  -0.394768   9.647162 -10.001331   6.434441  29.107114   3.928420  46.859396  -0.013058  24.631760  -0.008091   3.251126   2.719055   1.370483   2.700722   2.918741  -4.385950   2.707447  -6.514799 -43.718361  -0.078460 -80.381881  -0.040838   2.189289  -8.226616   3.789218 -47.254158  -2.518453  -6.684561  68.761897  -0.016454  -0.036366   1.070025  -7.799344   5.763554  -3.236550  -0.001946   0.001831  -2.714131  -5.510174   2.986146  36.951692   0.002897  -0.010368  -2.976063  -2.919379   1.735992 -43.007819  -0.031850  -0.015130
 -2.226364   0.892862   5.794271   7.146457   8.776732   0.450291   5.502503  -3.971694   1.140556  -0.472817  -4.963125   1.949529  -8.293255  -0.741073  -0.598732  10.035571 -10.406253   6.323241  29.741510   3.535625  46.997688  -0.012502  24.266407  -0.007043   3.242784   2.542033   1.356492   2.777732   2.909047  -4.154256   2.575249  -6.891661 -43.827498  -0.050749 -81.815068  -0.014208   2.280967  -8.488474   3.759085 -47.724579  -2.509988  -6.607927  64.784132  -0.007611  -0.033570   0.624995  -8.005453   5.694822  -3.118959  -0.002249   0.001823  -1.872225  -5.425931   3.230928  36.489717   0.002930  -0.008866   0.512094  -3.283907   1.314220 -42.831934  -0.024507  -0.012080
 -2.226902   0.895992   5.814793   7.362145   8.709818   0.497738   5.128735  -4.121586   1.298058  -0.573502  -5.093835   2.029894  -8.152931  -0.673752  -0.788156  10.396043 -10.782629   6.218583  30.332608   3.172324  47.130762  -0.012047  23.927444  -0.006048   3.234418   2.385118   1.347709   2.863289   2.917608  -3.938804   2.463173  -7.233312 -43.932339  -0.020192 -83.150677   0.015311   2.367238  -8.724123   3.722576 -48.132432  -2.530030  -6.499694  60.820029   0.002420  -0.028607   0.209802  -8.196326   5.630946  -3.009515  -0.002530   0.001729  -1.093331  -5.348225   3.414719  36.063562   0.003036  -0.007288   3.850423  -3.665163   0.954628 -41.759124  -0.014253  -0.009417
 -2.227355   0.898531   5.835288   7.585352   8.591915   0.575841   4.774943  -4.254989   1.457355  -0.668898  -5.205312   2.116018  -8.022267  -0.611692  -0.963476  10.731268 -11.133266   6.120077  30.883837   2.836138  47.259542  -0.011647  23.613123  -0.005102   3.226054   2.248209   1.344231   2.949278   2.936264  -3.730346   2.363665  -7.545710 -44.028218   0.015362 -84.396913   0.049956   2.449223  -8.942397   3.688420 -48.520676  -2.567657  -6.375460  57.061798   0.011718  -0.022259  -0.180595  -8.373256   5.571660  -2.911737  -0.002710   0.001566  -0.357081  -5.275435   3.543853  35.667438   0.003124  -0.005812   7.027384  -4.050889   0.650813 -40.016662  -0.003153  -0.008352
 -2.227591   0.900291   5.855873   7.472223   8.691619   0.825175   4.674330  -4.509010   1.525029  -0.698204  -5.336903   2.131840  -7.859078  -0.553133  -1.087117  11.115979 -11.424666   6.280084  31.071698   2.310083  47.287496  -0.010463  23.400004  -0.004648   3.237199   1.888377   1.416607   3.030738   2.883918  -3.560803   2.574612  -7.967852 -43.999957   0.064315 -85.189641   0.095896   2.534660  -9.423084   3.872836 -48.313327  -2.583169  -6.544897  53.287235   0.014683  -0.016518  -0.669579  -8.399549   5.654896  -2.741418  -0.003387   0.001751  -0.029175  -5.226519   3.463183  37.563374   0.001912  -0.001659   7.656419  -4.262680   0.573549 -36.381872   0.004908  -0.002490
